<svg width="25" height="25" viewBox="0 0 25 25" fill="none" xmlns="http://www.w3.org/2000/svg">
<path d="M6.23437 7.81625C6.03529 7.81625 5.84437 7.89533 5.7036 8.0361C5.56283 8.17687 5.48375 8.3678 5.48375 8.56688C5.48375 8.76595 5.56283 8.95688 5.7036 9.09765C5.84437 9.23842 6.03529 9.3175 6.23437 9.3175H16.7431C16.9422 9.3175 17.1331 9.23842 17.2739 9.09765C17.4147 8.95688 17.4937 8.76595 17.4937 8.56688C17.4937 8.3678 17.4147 8.17687 17.2739 8.0361C17.1331 7.89533 16.9422 7.81625 16.7431 7.81625H6.23437ZM6.23437 10.8188C6.03529 10.8188 5.84437 10.8978 5.7036 11.0386C5.56283 11.1794 5.48375 11.3703 5.48375 11.5694V14.5719C5.48375 14.771 5.56283 14.9619 5.7036 15.1026C5.84437 15.2434 6.03529 15.3225 6.23437 15.3225H9.23687C9.43595 15.3225 9.62688 15.2434 9.76765 15.1026C9.90841 14.9619 9.9875 14.771 9.9875 14.5719V11.5694C9.9875 11.3703 9.90841 11.1794 9.76765 11.0386C9.62688 10.8978 9.43595 10.8188 9.23687 10.8188H6.23437ZM6.985 13.8213V12.32H8.48625V13.8213H6.985ZM12.2394 10.8188C12.0403 10.8188 11.8494 10.8978 11.7086 11.0386C11.5678 11.1794 11.4887 11.3703 11.4887 11.5694C11.4887 11.7685 11.5678 11.9594 11.7086 12.1001C11.8494 12.2409 12.0403 12.32 12.2394 12.32H16.7431C16.9422 12.32 17.1331 12.2409 17.2739 12.1001C17.4147 11.9594 17.4937 11.7685 17.4937 11.5694C17.4937 11.3703 17.4147 11.1794 17.2739 11.0386C17.1331 10.8978 16.9422 10.8188 16.7431 10.8188H12.2394ZM12.2394 13.8213C12.0403 13.8213 11.8494 13.9003 11.7086 14.0411C11.5678 14.1819 11.4887 14.3728 11.4887 14.5719C11.4887 14.771 11.5678 14.9619 11.7086 15.1026C11.8494 15.2434 12.0403 15.3225 12.2394 15.3225H16.7431C16.9422 15.3225 17.1331 15.2434 17.2739 15.1026C17.4147 14.9619 17.4937 14.771 17.4937 14.5719C17.4937 14.3728 17.4147 14.1819 17.2739 14.0411C17.1331 13.9003 16.9422 13.8213 16.7431 13.8213H12.2394ZM2.48125 6.315C2.48125 5.51869 2.79758 4.75499 3.36066 4.19191C3.92374 3.62883 4.68743 3.3125 5.48375 3.3125H17.4937C18.2901 3.3125 19.0538 3.62883 19.6168 4.19191C20.1799 4.75499 20.4963 5.51869 20.4963 6.315C21.2926 6.315 22.0563 6.63133 22.6193 7.19441C23.1824 7.75749 23.4988 8.52119 23.4988 9.3175V16.0731C23.4988 17.0685 23.1033 18.0231 22.3995 18.727C21.6956 19.4308 20.741 19.8263 19.7456 19.8263H6.23437C5.23898 19.8263 4.28436 19.4308 3.58051 18.727C2.87666 18.0231 2.48125 17.0685 2.48125 16.0731V6.315ZM19.7456 16.0731C19.5465 16.0731 19.3556 15.994 19.2149 15.8533C19.0741 15.7125 18.995 15.5216 18.995 15.3225V6.315C18.995 5.91684 18.8368 5.535 18.5553 5.25346C18.2738 4.97192 17.8919 4.81375 17.4937 4.81375H5.48375C5.08559 4.81375 4.70374 4.97192 4.4222 5.25346C4.14066 5.535 3.9825 5.91684 3.9825 6.315V16.0731C3.9825 16.6704 4.21975 17.2431 4.64206 17.6654C5.06436 18.0878 5.63714 18.325 6.23437 18.325H19.7456C20.3429 18.325 20.9156 18.0878 21.3379 17.6654C21.7603 17.2431 21.9975 16.6704 21.9975 16.0731V9.3175C21.9975 8.91934 21.8393 8.5375 21.5578 8.25596C21.2763 7.97442 20.8944 7.81625 20.4963 7.81625V15.3225C20.4963 15.5216 20.4172 15.7125 20.2764 15.8533C20.1356 15.994 19.9447 16.0731 19.7456 16.0731Z" fill="#242220"/>
</svg>
