<svg width="25" height="25" viewBox="0 0 25 25" fill="none" xmlns="http://www.w3.org/2000/svg">
<path d="M23.7298 6.97845C23.7307 6.40049 23.5645 5.83459 23.2514 5.34879C22.9383 4.863 22.4915 4.478 21.9648 4.24008C21.438 4.00217 20.8538 3.92147 20.2823 4.00769C19.7108 4.09392 19.1764 4.34339 18.7433 4.72611C18.5088 4.93293 18.3078 5.17487 18.1475 5.4433V5.44611C18.1222 5.4883 18.0983 5.53142 18.0748 5.57455L18.0636 5.59752C18.0439 5.63455 18.0256 5.67205 18.0078 5.71002C18.0022 5.72174 17.997 5.73345 17.9919 5.74517C17.9764 5.77939 17.9614 5.81408 17.9473 5.84924C17.9413 5.86377 17.9356 5.8783 17.93 5.89283C17.9173 5.92564 17.9052 5.95845 17.8934 5.99174L17.8766 6.04142C17.8663 6.0733 17.8564 6.10564 17.847 6.13799C17.8414 6.15627 17.8363 6.17408 17.8316 6.19236C17.8227 6.22377 17.8152 6.25564 17.8077 6.28611C17.803 6.30533 17.7983 6.32455 17.7941 6.34377C17.7875 6.37564 17.7814 6.40799 17.7758 6.43752C17.772 6.45721 17.7683 6.47689 17.765 6.49658C17.7598 6.52939 17.7556 6.56267 17.7514 6.59595C17.7491 6.61517 17.7462 6.63439 17.7439 6.65408C17.7402 6.69017 17.7378 6.72627 17.735 6.76283C17.735 6.7797 17.7322 6.79658 17.7313 6.81345C17.7284 6.86689 17.7266 6.92033 17.7266 6.9747C17.7266 7.02158 17.7266 7.06845 17.7303 7.11252V7.14252C17.7328 7.18658 17.7361 7.23064 17.7402 7.2747L17.743 7.2972C17.7472 7.33705 17.7519 7.37642 17.758 7.41533C17.758 7.4233 17.758 7.43174 17.7613 7.4397C17.7678 7.48236 17.7758 7.52455 17.7842 7.56674C17.7842 7.57705 17.7884 7.58689 17.7903 7.5972C17.7988 7.63752 17.8081 7.67783 17.8184 7.71767V7.72658C17.8292 7.7683 17.8409 7.80908 17.8536 7.84986L17.8634 7.88174C17.8761 7.92158 17.8892 7.96049 17.9033 7.99939C17.9061 8.00783 17.9094 8.01627 17.9127 8.0247C17.9253 8.05799 17.9384 8.09127 17.952 8.12408C17.9558 8.13392 17.9595 8.1433 17.9637 8.15267C17.9797 8.1897 17.9961 8.22674 18.0134 8.2633L18.0289 8.2947C18.0453 8.32752 18.0617 8.36033 18.0791 8.39267C18.3237 8.84742 18.6811 9.23172 19.1169 9.50877C19.2312 9.58187 19.3506 9.64688 19.4741 9.7033L19.4923 9.71174C19.5755 9.74924 19.6603 9.78299 19.7469 9.81299L19.7914 9.82799L19.8617 9.85002C19.8828 9.85658 19.9039 9.8622 19.9255 9.8683L20.0155 9.89174L20.0966 9.91049L20.1505 9.92127L20.2363 9.93674L20.2803 9.94377C20.3225 9.94986 20.3652 9.95549 20.4078 9.96017L20.4439 9.96345C20.4781 9.96627 20.5128 9.96908 20.5475 9.97095L20.5878 9.9733C20.6347 9.9733 20.6788 9.97705 20.7247 9.97705C20.7791 9.97705 20.8325 9.97705 20.8859 9.97236L20.9366 9.96861C20.9731 9.9658 21.0092 9.96345 21.0453 9.9597L21.1039 9.9522C21.1367 9.94799 21.17 9.94377 21.2028 9.93861L21.2619 9.92783C21.2938 9.9222 21.3261 9.91611 21.3556 9.90955L21.4133 9.89595C21.4452 9.88845 21.477 9.88095 21.507 9.87205C21.5253 9.86736 21.5431 9.8622 21.5614 9.85658C21.5938 9.8472 21.6261 9.83736 21.658 9.82705L21.7077 9.81017C21.7409 9.79846 21.7738 9.78627 21.8066 9.77361L21.8502 9.75627C21.8853 9.7422 21.92 9.7272 21.9542 9.71174L21.9894 9.6958C22.0273 9.67799 22.0648 9.6597 22.1019 9.64002L22.1248 9.62877C22.168 9.60533 22.2111 9.58189 22.2533 9.55611H22.2561C22.5267 9.39706 22.7709 9.19685 22.9798 8.96267C23.4639 8.41512 23.7307 7.70928 23.7298 6.97845Z" fill="#242220"/>
<path d="M17.8884 10.4697L12.9403 14.3181C12.8087 14.4204 12.6467 14.476 12.48 14.476C12.3133 14.476 12.1513 14.4204 12.0197 14.3181L5.26967 9.06811C5.19036 9.00822 5.12375 8.93316 5.0737 8.8473C5.02365 8.76145 4.99116 8.6665 4.97813 8.56798C4.96509 8.46946 4.97177 8.36933 4.99776 8.27341C5.02376 8.17749 5.06856 8.08769 5.12956 8.00924C5.19056 7.93078 5.26654 7.86523 5.3531 7.8164C5.43965 7.76756 5.53504 7.73641 5.63374 7.72477C5.73243 7.71312 5.83246 7.7212 5.928 7.74854C6.02355 7.77589 6.1127 7.82194 6.19029 7.88404L12.48 12.7759L16.8965 9.34092C16.4692 8.64959 16.2374 7.85529 16.2257 7.04263C16.2141 6.22997 16.4231 5.42936 16.8304 4.72607H4.60498C3.90902 4.72682 3.24177 5.00362 2.74965 5.49574C2.25753 5.98786 1.98072 6.65511 1.97998 7.35107V18.6011C1.98072 19.297 2.25753 19.9643 2.74965 20.4564C3.24177 20.9485 3.90902 21.2253 4.60498 21.2261H20.355C21.0509 21.2253 21.7182 20.9485 22.2103 20.4564C22.7024 19.9643 22.9792 19.297 22.98 18.6011V10.8756C22.1905 11.3329 21.2804 11.539 20.3709 11.4665C19.4614 11.394 18.5955 11.0463 17.8884 10.4697Z" fill="#242220"/>
</svg>
