<svg width="40" height="40" viewBox="0 0 40 40" fill="none" xmlns="http://www.w3.org/2000/svg">
<path d="M25.8333 25H32.5V28.3333H25.8333V25ZM40 23.3333V40H0V23.3333C0 20.5767 2.24333 18.3333 5 18.3333H8.33333V5C8.33333 2.24333 10.5767 0 13.3333 0H26.6667C29.4233 0 31.6667 2.24333 31.6667 5V18.3333H35C37.7567 18.3333 40 20.5767 40 23.3333ZM11.6667 18.3333H28.3333V5C28.3333 4.08 27.5867 3.33333 26.6667 3.33333H13.3333C12.4133 3.33333 11.6667 4.08 11.6667 5V18.3333ZM3.33333 36.6667H18.3333V21.6667H5C4.08 21.6667 3.33333 22.4133 3.33333 23.3333V36.6667ZM36.6667 23.3333C36.6667 22.4133 35.92 21.6667 35 21.6667H21.6667V36.6667H36.6667V23.3333ZM7.5 25V28.3333H14.1667V25H7.5ZM16.6667 10H23.3333V6.66667H16.6667V10Z" fill="#BEBEBE"/>
</svg>
