<svg width="26" height="26" viewBox="0 0 26 26" fill="none" xmlns="http://www.w3.org/2000/svg">
<g clip-path="url(#clip0_1686_12700)">
<path d="M7.22998 4.83105H5.66748V12.6436H7.22998V4.83105ZM4.10498 17.667V7.1748H2.54248V18.1201C2.54248 18.4014 2.69092 18.6514 2.93311 18.792L11.1362 23.5811L11.9253 22.2295L4.11279 17.667H4.10498ZM21.2925 10.2998H22.855V7.1748C22.855 6.89355 22.7065 6.64356 22.4644 6.50293L13.0894 1.03418C12.9644 0.963867 12.8315 0.924805 12.6987 0.924805C12.5659 0.924805 12.4253 0.963867 12.3081 1.03418L9.18311 2.85449C9.06503 2.92266 8.96685 3.02054 8.89832 3.13841C8.82979 3.25628 8.7933 3.39003 8.79248 3.52637V10.2998H10.355V3.97949L12.6987 2.6123L21.2925 7.62793V10.3076V10.2998ZM19.7534 13.4717L21.1519 15.917L22.3003 14.7686L20.4175 11.4717C20.2769 11.2217 20.019 11.0576 19.73 11.0811C19.59 11.0828 19.453 11.1222 19.3335 11.195C19.2139 11.2679 19.1161 11.3715 19.0503 11.4951L13.5815 21.6514C13.5168 21.7705 13.4842 21.9045 13.4869 22.0402C13.4896 22.1758 13.5276 22.3083 13.5972 22.4248C13.7378 22.6592 13.9956 22.8076 14.269 22.8076H24.4253V21.2451H15.5737L19.7534 13.4795V13.4717ZM20.0581 17.0029L18.9565 18.1045L21.3003 20.4482L25.2065 16.542L24.105 15.4404L21.3003 18.2451L20.0581 17.0029Z" fill="black"/>
</g>
<defs>
<clipPath id="clip0_1686_12700">
<rect width="25" height="25" fill="white" transform="translate(0.97998 0.143555)"/>
</clipPath>
</defs>
</svg>
