<svg width="772" height="1024" viewBox="0 0 772 1024" fill="none" xmlns="http://www.w3.org/2000/svg">
<mask id="path-1-inside-1_737_8678" fill="white">
<path d="M442.822 1214.19L442.543 1213.85C448.929 1185.79 455.945 1157.65 462.94 1129.61C486.025 1037.05 508.859 945.519 507.792 861.092C505.334 666.428 375.714 509.526 -170.896 464.921L-171.201 464.548C375.951 509.144 505.677 666.213 508.137 861.094C509.203 945.565 486.367 1037.12 463.273 1129.7C456.257 1157.82 449.219 1186.04 442.821 1214.19M452.329 1225.8L452.04 1225.44C458.313 1191.17 465.661 1156.6 472.998 1122.08C493.369 1026.25 513.672 930.729 510.753 842.695C503.905 636.236 369.206 470.91 -192.037 439.112L-192.336 438.746C369.435 470.522 504.241 636.013 511.096 842.69C514.019 930.769 493.71 1026.31 473.336 1122.16C465.977 1156.78 458.609 1191.43 452.325 1225.8L452.329 1225.8ZM463.526 1239.47L463.227 1239.1C468.911 1198.57 476.251 1157.34 483.61 1116.03C501.355 1016.38 519.195 916.2 514.121 823.955C502.111 605.66 361.646 431.788 -212.203 414.491L-212.497 414.132C361.87 431.391 502.445 605.426 514.466 823.941C519.544 916.226 501.699 1016.43 483.952 1116.1C476.577 1157.51 469.215 1198.84 463.526 1239.47ZM476.427 1255.22L476.117 1254.84C480.744 1208.12 487.753 1160.05 494.816 1111.64C510.009 1007.49 525.435 901.74 517.825 804.513C499.821 574.507 352.761 392.168 -231.366 391.096L-231.65 390.749C352.975 391.766 500.148 574.268 518.169 804.493C525.783 901.754 510.353 1007.52 495.157 1111.7C488.079 1160.22 481.053 1208.4 476.425 1255.21L476.427 1255.22ZM491.857 1260.09L491.488 1260.4C494.814 1211.48 500.702 1160.64 506.668 1109.17C519.362 999.613 532.396 887.136 521.759 783.964C496.87 542.576 342.275 352.107 -249.48 368.981L-249.758 368.641C342.482 351.697 497.193 542.331 522.102 783.935C532.742 887.147 519.707 999.644 507.01 1109.21C501.059 1160.57 495.184 1211.28 491.855 1260.1L491.857 1260.09ZM509.078 1245.99L508.715 1246.29C511.034 1201.92 515.095 1155.79 519.225 1108.89C529.441 992.882 540.07 872.173 525.766 761.849C493.065 509.629 329.926 311.695 -266.5 348.197L-266.772 347.865C330.123 311.281 493.383 509.378 526.11 761.813C540.419 872.173 529.786 992.901 519.57 1108.93C515.449 1155.71 511.398 1201.73 509.076 1245.99L509.078 1245.99ZM526.344 1231.85L525.985 1232.14C527.443 1193.09 529.972 1152.53 532.556 1111.17C540.276 987.474 548.442 856.623 529.635 737.686C488.171 475.431 315.481 271.075 -282.38 328.81L-282.645 328.487C315.662 270.654 488.479 475.173 529.978 737.641C548.79 856.617 540.624 987.488 532.902 1111.21C530.328 1152.45 527.802 1192.9 526.346 1231.85L526.344 1231.85ZM543.651 1217.67L543.298 1217.96C544.052 1185.16 545.377 1151.19 546.729 1116.51C551.908 983.714 557.498 840.306 533.097 710.984C481.913 439.747 298.744 230.439 -297.069 310.88L-297.328 310.564C298.917 230.012 482.215 439.477 533.434 710.927C557.842 840.287 552.251 983.714 547.072 1116.53C545.725 1151.11 544.404 1184.97 543.651 1217.67ZM560.997 1203.46L560.648 1203.75C560.885 1178.35 561.352 1152.2 561.829 1125.51C564.396 982.125 567.243 823.086 535.813 681.273C473.999 402.385 279.54 190.125 -310.467 294.523L-310.722 294.213C279.699 189.69 474.29 402.107 536.15 681.204C567.591 823.055 564.742 982.117 562.175 1125.53C561.698 1152.11 561.233 1178.16 560.997 1203.47L560.997 1203.46ZM578.38 1189.22L578.035 1189.51C577.972 1173.01 577.96 1156.16 577.949 1139.04C577.853 983.591 577.744 804.937 537.402 648.123C464.608 365.166 260.737 153.333 -310.478 277.13L-309.88 276.64C261.087 153.096 464.926 365.018 537.736 648.043C578.087 804.901 578.198 983.581 578.294 1139.05C578.304 1156.07 578.316 1172.82 578.378 1189.23L578.38 1189.22ZM595.794 1174.96L595.451 1175.24C595.359 1169.65 595.268 1164.02 595.176 1158.34C592.449 989.628 589.157 786.052 537.423 611.193C454.538 331.043 247.215 124.642 -281.418 253.327L-280.794 252.816C247.569 124.424 454.856 330.898 537.756 611.1C589.504 786.004 592.797 989.605 595.523 1158.34C595.614 1163.92 595.704 1169.46 595.794 1174.96ZM613.238 1160.67L612.899 1160.95C607.782 982.258 598.952 758.308 535.402 570.217C442.723 295.886 233.577 97.8729 -250.234 227.785L-249.584 227.252C233.942 97.6757 443.039 295.748 535.732 570.111C599.264 758.161 608.12 982.004 613.238 1160.67ZM630.712 1146.36L630.375 1146.64C622.85 959.908 606.045 721.056 530.849 525.07C429.133 259.975 220.505 73.3561 -216.556 200.199L-215.87 199.638C220.892 73.1736 429.454 259.846 531.171 524.947C606.356 720.894 623.18 959.648 630.712 1146.36ZM648.208 1132.03L647.875 1132.3C636.832 918.063 606.912 631.759 496.904 420.291C381.987 199.395 179.629 60.2209 -179.909 170.182L-179.202 169.603C180.037 60.0312 382.303 199.255 497.208 420.134C607.205 631.575 637.153 917.784 648.208 1132.03ZM665.73 1117.68L665.399 1117.95C651.896 901.45 612.499 607.94 496.749 392.358C379.791 174.522 184.851 36.2981 -140.124 137.595L-139.412 137.012C185.271 36.1314 380.114 174.395 497.055 392.199C612.787 607.75 652.21 901.17 665.73 1117.68ZM683.276 1103.3L682.947 1103.57C667.059 885.369 618.329 585.553 497.467 366C450.345 280.402 392.261 207.007 320.885 155.416C249.517 103.829 164.856 74.0439 64.5744 75.652C14.525 76.4535 -39.4192 85.0803 -97.5417 102.716L-96.8358 102.138C-38.992 84.6582 14.7136 76.1022 64.5591 75.3038C164.92 73.6957 249.653 103.508 321.081 155.135C392.5 206.759 450.62 280.193 497.767 365.837C618.614 585.359 667.36 885.087 683.274 1103.31L683.276 1103.3ZM700.844 1088.92L700.519 1089.18C681.376 858.278 618.337 532.304 478.787 306.71C430.922 229.331 374.054 163.764 306.871 117.901C239.696 72.044 162.204 45.8861 73.0816 47.3127C33.3467 47.9517 -8.70241 54.0749 -53.1766 66.3768L-52.5047 65.8264C-8.28481 53.6574 33.5353 47.6004 73.0678 46.9665C162.267 45.536 239.826 71.7181 307.062 117.617C374.285 163.509 431.185 229.112 479.077 306.531C618.611 532.102 681.671 857.987 700.842 1088.92L700.844 1088.92ZM718.433 1074.51L718.11 1074.77C702.679 908.219 660.806 690.344 585.225 495.772C528.75 350.385 453.459 218.015 356.323 129.804C259.205 41.6114 140.247 -2.44058 -3.57735 28.7814C-5.27177 29.1492 -6.96774 29.5312 -8.66606 29.9186L-8.05993 29.4221C-6.59102 29.0882 -5.12089 28.7599 -3.65552 28.442C140.296 -2.80839 259.353 41.28 356.551 129.549C453.729 217.8 529.05 350.218 585.543 495.652C661.102 690.164 702.98 907.96 718.431 1074.51L718.433 1074.51ZM736.037 1060.09L735.718 1060.35C717.676 883.588 665.9 646.982 577.368 441.178C517.09 301.057 439.776 175.222 344.481 92.2972C256.594 15.8251 153.41 -24.1521 34.1817 -5.1776L34.716 -5.61528C153.806 -24.381 256.888 15.6233 344.703 92.0398C440.044 175.004 517.386 300.881 577.684 441.047C666.191 646.792 717.968 883.323 736.037 1060.09ZM753.66 1045.65L753.341 1045.91C732.527 858.703 669.556 602.137 567.252 385.53C503.779 251.14 425.169 132.143 332.104 54.6575C255.685 -8.96444 169.519 -44.5896 73.9788 -37.7751L74.4473 -38.1588C169.884 -44.823 255.966 -9.17837 332.322 54.3942C425.43 131.917 504.069 250.958 567.563 385.39C669.843 601.942 732.812 858.43 753.658 1045.66L753.66 1045.65ZM771.298 1031.21L770.981 1031.47C747.256 833.78 671.84 556.333 555.248 329.661C489.22 201.291 409.99 89.2116 319.481 17.1441C255.151 -34.0738 185.12 -65.07 110.075 -67.3414L110.486 -67.6778C185.456 -65.3061 255.421 -34.3014 319.693 16.8749C410.247 88.9719 489.507 201.092 555.556 329.504C672.121 556.126 747.538 833.493 771.298 1031.21ZM-149.132 491.488C381.663 547.258 506.854 696.162 505.617 879.432C505.067 960.762 479.63 1048.84 453.722 1138.55C447.383 1160.5 441.017 1182.54 434.979 1204.61L434.707 1204.28C440.726 1182.28 447.071 1160.31 453.389 1138.44C479.291 1048.76 504.724 960.702 505.273 879.422C506.508 696.37 381.423 547.631 -148.821 491.868L-149.132 491.488Z"/>
</mask>
<path d="M442.543 1213.85L428.892 1210.74L427.372 1217.42L431.712 1222.72L442.543 1213.85ZM462.94 1129.61L476.523 1132.99L476.523 1132.99L462.94 1129.61ZM507.792 861.092L493.793 861.269L493.793 861.269L507.792 861.092ZM-170.896 464.921L-181.726 473.793L-177.959 478.392L-172.034 478.875L-170.896 464.921ZM-171.201 464.548L-170.064 450.595L-202.921 447.917L-182.032 473.42L-171.201 464.548ZM508.137 861.094L522.136 860.918L522.136 860.918L508.137 861.094ZM463.273 1129.7L476.857 1133.09L476.857 1133.09L463.273 1129.7ZM452.329 1225.8L450.728 1239.7L485.054 1243.65L463.16 1216.92L452.329 1225.8ZM452.04 1225.44L438.269 1222.92L437.101 1229.3L441.209 1234.31L452.04 1225.44ZM472.998 1122.08L459.304 1119.17L459.304 1119.17L472.998 1122.08ZM510.753 842.695L524.746 842.231L524.746 842.23L510.753 842.695ZM-192.037 439.112L-202.867 447.983L-198.97 452.741L-192.828 453.089L-192.037 439.112ZM-192.336 438.746L-191.545 424.769L-223.355 422.969L-203.166 447.618L-192.336 438.746ZM511.096 842.69L497.104 843.154L497.104 843.154L511.096 842.69ZM473.336 1122.16L459.642 1119.25L459.642 1119.25L473.336 1122.16ZM452.325 1225.8L438.554 1223.28L435.863 1237.99L450.725 1239.7L452.325 1225.8ZM463.526 1239.47L452.695 1248.34L472.956 1273.07L477.39 1241.41L463.526 1239.47ZM463.227 1239.1L449.362 1237.16L448.511 1243.23L452.396 1247.97L463.227 1239.1ZM483.61 1116.03L497.393 1118.48L497.393 1118.48L483.61 1116.03ZM514.121 823.955L528.099 823.186L528.099 823.186L514.121 823.955ZM-212.203 414.491L-223.033 423.362L-218.995 428.293L-212.625 428.485L-212.203 414.491ZM-212.497 414.132L-212.076 400.138L-242.813 399.215L-223.328 423.003L-212.497 414.132ZM514.466 823.941L500.487 824.71L500.487 824.71L514.466 823.941ZM483.952 1116.1L470.169 1113.64L483.952 1116.1ZM476.117 1254.84L462.185 1253.46L461.613 1259.22L465.286 1263.71L476.117 1254.84ZM494.816 1111.64L508.669 1113.67L508.669 1113.67L494.816 1111.64ZM517.825 804.513L531.782 803.42L531.782 803.42L517.825 804.513ZM-231.366 391.096L-242.196 399.967L-238.005 405.084L-231.391 405.096L-231.366 391.096ZM-231.65 390.749L-231.626 376.749L-261.257 376.697L-242.481 399.62L-231.65 390.749ZM518.169 804.493L504.212 805.586L504.212 805.586L518.169 804.493ZM495.157 1111.7L509.011 1113.72L509.011 1113.72L495.157 1111.7ZM476.425 1255.21L462.493 1253.84L461.923 1259.6L465.595 1264.09L476.425 1255.21ZM491.488 1260.4L477.52 1259.45L475.325 1291.73L500.359 1271.23L491.488 1260.4ZM506.668 1109.17L520.575 1110.78L520.575 1110.78L506.668 1109.17ZM521.759 783.964L535.685 782.528L535.685 782.528L521.759 783.964ZM-249.48 368.981L-260.311 377.852L-255.954 383.171L-249.081 382.975L-249.48 368.981ZM-249.758 368.641L-250.158 354.647L-278.65 355.462L-260.589 377.512L-249.758 368.641ZM522.102 783.935L536.028 782.5L536.028 782.499L522.102 783.935ZM507.01 1109.21L520.917 1110.83L520.917 1110.83L507.01 1109.21ZM491.855 1260.1L477.887 1259.14L475.685 1291.44L500.726 1270.93L491.855 1260.1ZM508.715 1246.29L494.734 1245.56L493.08 1277.19L517.586 1257.12L508.715 1246.29ZM519.225 1108.89L505.279 1107.66L505.279 1107.66L519.225 1108.89ZM525.766 761.849L539.65 760.049L539.65 760.049L525.766 761.849ZM-266.5 348.197L-277.331 357.068L-272.793 362.608L-265.645 362.171L-266.5 348.197ZM-266.772 347.865L-267.629 333.891L-294.944 335.566L-277.603 356.736L-266.772 347.865ZM526.11 761.813L512.227 763.613L512.227 763.614L526.11 761.813ZM519.57 1108.93L533.516 1110.15L533.516 1110.15L519.57 1108.93ZM509.076 1245.99L495.095 1245.26L493.434 1276.9L517.947 1256.82L509.076 1245.99ZM526.344 1231.85L537.175 1222.97L528.304 1212.14L517.473 1221.02L526.344 1231.85ZM525.985 1232.14L511.995 1231.62L510.837 1262.64L534.857 1242.97L525.985 1232.14ZM532.556 1111.17L546.529 1112.05L546.529 1112.05L532.556 1111.17ZM529.635 737.686L515.807 739.873L515.807 739.873L529.635 737.686ZM-282.38 328.81L-293.21 337.682L-288.474 343.464L-281.034 342.746L-282.38 328.81ZM-282.645 328.487L-283.992 314.552L-310.09 317.074L-293.476 337.358L-282.645 328.487ZM529.978 737.641L543.807 735.455L543.807 735.455L529.978 737.641ZM532.902 1111.21L518.929 1110.33L518.929 1110.33L532.902 1111.21ZM526.346 1231.85L515.515 1240.72L538.954 1269.34L540.336 1232.37L526.346 1231.85ZM543.651 1217.67L552.522 1228.5L557.499 1224.42L557.647 1217.99L543.651 1217.67ZM543.298 1217.96L529.302 1217.64L528.601 1248.09L552.169 1228.79L543.298 1217.96ZM546.729 1116.51L532.74 1115.96L532.74 1115.96L546.729 1116.51ZM533.097 710.984L546.854 708.388L546.854 708.388L533.097 710.984ZM-297.069 310.88L-307.9 319.752L-302.945 325.801L-295.196 324.755L-297.069 310.88ZM-297.328 310.564L-299.203 296.69L-324.041 300.046L-308.159 319.436L-297.328 310.564ZM533.434 710.927L547.191 708.332L533.434 710.927ZM547.072 1116.53L533.083 1115.98L533.083 1115.98L547.072 1116.53ZM560.997 1203.46L574.917 1204.96L578.564 1170.98L552.126 1192.63L560.997 1203.46ZM560.648 1203.75L546.649 1203.62L546.37 1233.54L569.52 1214.58L560.648 1203.75ZM561.829 1125.51L547.831 1125.26L547.831 1125.26L561.829 1125.51ZM535.813 681.273L549.481 678.244L549.481 678.244L535.813 681.273ZM-310.467 294.523L-321.298 303.394L-316.102 309.738L-308.028 308.309L-310.467 294.523ZM-310.722 294.213L-313.162 280.427L-336.697 284.594L-321.552 303.084L-310.722 294.213ZM536.15 681.204L522.481 684.234L522.481 684.234L536.15 681.204ZM562.175 1125.53L576.173 1125.78L576.173 1125.78L562.175 1125.53ZM560.997 1203.47L546.997 1203.34L574.917 1204.96L560.997 1203.47ZM578.035 1189.51L564.035 1189.56L564.147 1218.98L586.906 1200.34L578.035 1189.51ZM577.949 1139.04L591.949 1139.03L577.949 1139.04ZM537.402 648.123L523.843 651.612L537.402 648.123ZM-310.478 277.13L-319.349 266.299L-307.513 290.812L-310.478 277.13ZM-309.88 276.64L-312.841 262.957L-316.14 263.671L-318.751 265.81L-309.88 276.64ZM537.736 648.043L551.294 644.555L551.294 644.555L537.736 648.043ZM578.294 1139.05L564.294 1139.06L564.294 1139.06L578.294 1139.05ZM578.378 1189.23L564.378 1189.28L564.488 1218.7L587.249 1200.06L578.378 1189.23ZM595.794 1174.96L604.665 1185.79L609.903 1181.5L609.792 1174.73L595.794 1174.96ZM595.451 1175.24L581.453 1175.47L581.926 1204.42L604.322 1186.07L595.451 1175.24ZM595.176 1158.34L609.174 1158.12L595.176 1158.34ZM537.423 611.193L523.998 615.165L523.998 615.165L537.423 611.193ZM-281.418 253.327L-290.289 242.497L-278.107 266.93L-281.418 253.327ZM-280.794 252.816L-284.1 239.212L-287.198 239.965L-289.665 241.985L-280.794 252.816ZM537.756 611.1L524.331 615.072L524.331 615.072L537.756 611.1ZM595.523 1158.34L581.525 1158.57L581.525 1158.57L595.523 1158.34ZM613.238 1160.67L622.109 1171.5L627.429 1167.15L627.232 1160.27L613.238 1160.67ZM612.899 1160.95L598.905 1161.35L599.721 1189.84L621.77 1171.78L612.899 1160.95ZM535.402 570.217L522.139 574.698L522.139 574.698L535.402 570.217ZM-250.234 227.785L-259.106 216.954L-246.604 241.306L-250.234 227.785ZM-249.584 227.252L-253.208 213.73L-256.122 214.51L-258.456 216.422L-249.584 227.252ZM535.732 570.111L548.996 565.63L535.732 570.111ZM630.712 1146.36L639.583 1157.19L644.982 1152.77L644.701 1145.8L630.712 1146.36ZM630.375 1146.64L616.386 1147.2L617.517 1175.26L639.246 1157.47L630.375 1146.64ZM530.849 525.07L543.92 520.055L543.92 520.055L530.849 525.07ZM-216.556 200.199L-225.428 189.369L-212.654 213.645L-216.556 200.199ZM-215.87 199.638L-219.764 186.19L-222.521 186.988L-224.742 188.807L-215.87 199.638ZM531.171 524.947L518.1 529.962L518.1 529.963L531.171 524.947ZM648.208 1132.03L657.079 1142.86L662.554 1138.37L662.189 1131.31L648.208 1132.03ZM647.875 1132.3L633.894 1133.02L635.319 1160.68L656.746 1143.13L647.875 1132.3ZM496.904 420.291L509.324 413.83L509.324 413.83L496.904 420.291ZM-179.909 170.182L-188.781 159.352L-175.815 183.57L-179.909 170.182ZM-179.202 169.603L-183.286 156.212L-185.932 157.019L-188.073 158.772L-179.202 169.603ZM497.208 420.134L484.788 426.595L484.788 426.595L497.208 420.134ZM665.73 1117.68L674.601 1128.51L680.15 1123.96L679.703 1116.8L665.73 1117.68ZM665.399 1117.95L651.426 1118.82L653.127 1146.1L674.27 1128.78L665.399 1117.95ZM496.749 392.358L484.414 398.981L484.414 398.981L496.749 392.358ZM-140.124 137.595L-148.995 126.764L-135.958 150.96L-140.124 137.595ZM-139.412 137.012L-143.566 123.642L-146.172 124.452L-148.284 126.181L-139.412 137.012ZM497.055 392.199L484.721 398.822L484.721 398.822L497.055 392.199ZM682.947 1103.57L668.984 1104.59L670.943 1131.5L691.818 1114.41L682.947 1103.57ZM497.467 366L509.732 359.249L509.732 359.249L497.467 366ZM320.885 155.416L312.684 166.763L312.684 166.763L320.885 155.416ZM64.5744 75.652L64.7986 89.6502L64.7989 89.6502L64.5744 75.652ZM-97.5417 102.716L-106.413 91.8851L-93.4768 116.113L-97.5417 102.716ZM-96.8358 102.138L-100.886 88.7361L-103.552 89.5419L-105.707 91.307L-96.8358 102.138ZM64.5591 75.3038L64.7833 89.302L64.7833 89.302L64.5591 75.3038ZM321.081 155.135L329.283 143.788L329.282 143.788L321.081 155.135ZM497.767 365.837L485.502 372.588L485.502 372.589L497.767 365.837ZM683.274 1103.31L669.311 1104.32L671.273 1131.23L692.145 1114.14L683.274 1103.31ZM700.519 1089.18L686.566 1090.34L688.769 1116.9L709.39 1100.01L700.519 1089.18ZM478.787 306.71L466.881 314.075L478.787 306.71ZM306.871 117.901L314.764 106.338L314.764 106.338L306.871 117.901ZM73.0816 47.3127L72.8575 33.3145L72.8564 33.3146L73.0816 47.3127ZM-53.1766 66.3768L-62.0479 55.5462L-49.4443 79.8701L-53.1766 66.3768ZM-52.5047 65.8264L-56.2193 52.3282L-59.0803 53.1155L-61.3759 54.9958L-52.5047 65.8264ZM73.0678 46.9665L73.2922 60.9647L73.2923 60.9647L73.0678 46.9665ZM307.062 117.617L314.955 106.054L314.955 106.054L307.062 117.617ZM479.077 306.531L490.983 299.167L490.983 299.166L479.077 306.531ZM700.842 1088.92L686.889 1090.08L689.094 1116.64L709.713 1099.75L700.842 1088.92ZM718.11 1074.77L704.17 1076.06L706.6 1102.3L726.981 1085.6L718.11 1074.77ZM585.225 495.772L598.275 490.702L598.275 490.702L585.225 495.772ZM356.323 129.804L365.735 119.44L365.735 119.44L356.323 129.804ZM-3.57735 28.7814L-0.608332 42.463L-0.607356 42.4628L-3.57735 28.7814ZM-8.66606 29.9186L-17.5373 19.088L-5.55319 43.5681L-8.66606 29.9186ZM-8.05993 29.4221L-11.163 15.7703L-14.3794 16.5014L-16.9311 18.5915L-8.05993 29.4221ZM-3.65552 28.442L-0.687632 42.1238L-0.685448 42.1233L-3.65552 28.442ZM356.551 129.549L347.138 139.913L347.139 139.913L356.551 129.549ZM585.543 495.652L598.593 490.583L598.593 490.583L585.543 495.652ZM718.431 1074.51L704.491 1075.8L706.924 1102.03L727.302 1085.34L718.431 1074.51ZM736.037 1060.09L744.908 1070.92L750.729 1066.15L749.964 1058.67L736.037 1060.09ZM735.718 1060.35L721.79 1061.77L724.436 1087.69L744.589 1071.18L735.718 1060.35ZM577.368 441.178L590.228 435.645L590.228 435.645L577.368 441.178ZM344.481 92.2972L353.671 81.736L353.671 81.7356L344.481 92.2972ZM34.1817 -5.1776L25.3104 -16.0082L-14.7209 16.7811L36.382 8.64842L34.1817 -5.1776ZM34.716 -5.61528L32.5368 -19.4446L28.7839 -18.8533L25.8448 -16.4459L34.716 -5.61528ZM344.703 92.0398L335.513 102.601L335.513 102.601L344.703 92.0398ZM577.684 441.047L590.544 435.514L590.544 435.514L577.684 441.047ZM753.341 1045.91L739.427 1047.46L742.275 1073.08L762.213 1056.75L753.341 1045.91ZM567.252 385.53L554.593 391.509L554.593 391.509L567.252 385.53ZM332.104 54.6575L341.062 43.8985L341.062 43.8982L332.104 54.6575ZM73.9788 -37.7751L65.1076 -48.6056L31.0074 -20.6745L74.9748 -23.8105L73.9788 -37.7751ZM74.4473 -38.1588L73.4721 -52.1248L69.0249 -51.8143L65.5761 -48.9894L74.4473 -38.1588ZM332.322 54.3942L341.28 43.6352L341.279 43.6351L332.322 54.3942ZM567.563 385.39L580.222 379.411L580.222 379.411L567.563 385.39ZM753.658 1045.66L739.744 1047.2L742.596 1072.81L762.53 1056.49L753.658 1045.66ZM771.298 1031.21L780.169 1042.04L786.115 1037.17L785.198 1029.54L771.298 1031.21ZM770.981 1031.47L757.081 1033.13L760.12 1058.46L779.852 1042.3L770.981 1031.47ZM555.248 329.661L542.799 336.065L542.799 336.065L555.248 329.661ZM319.481 17.1441L328.202 6.19193L328.201 6.19157L319.481 17.1441ZM110.075 -67.3414L101.204 -78.172L72.2782 -54.479L109.652 -53.3478L110.075 -67.3414ZM110.486 -67.6778L110.929 -81.6708L105.679 -81.8369L101.615 -78.5084L110.486 -67.6778ZM319.693 16.8749L310.973 27.8271L310.973 27.8275L319.693 16.8749ZM555.556 329.504L543.106 335.908L543.106 335.908L555.556 329.504ZM-149.132 491.488L-147.67 477.564L-181.55 474.005L-159.963 500.359L-149.132 491.488ZM505.617 879.432L519.617 879.527L519.617 879.527L505.617 879.432ZM453.722 1138.55L467.172 1142.43L467.172 1142.43L453.722 1138.55ZM434.979 1204.61L424.148 1213.48L441.328 1234.46L448.483 1208.3L434.979 1204.61ZM434.707 1204.28L421.204 1200.58L419.295 1207.56L423.877 1213.15L434.707 1204.28ZM453.389 1138.44L466.839 1142.33L466.84 1142.33L453.389 1138.44ZM505.273 879.422L519.272 879.517L505.273 879.422ZM-148.821 491.868L-159.651 500.74L-156.006 505.19L-150.285 505.792L-148.821 491.868ZM453.653 1205.32L453.373 1204.98L431.712 1222.72L431.992 1223.06L453.653 1205.32ZM456.194 1216.95C462.542 1189.06 469.523 1161.06 476.523 1132.99L449.356 1126.22C442.367 1154.24 435.315 1182.52 428.892 1210.74L456.194 1216.95ZM476.523 1132.99C499.495 1040.9 522.885 947.502 521.791 860.915L493.793 861.269C494.833 943.535 472.554 1033.21 449.356 1126.22L476.523 1132.99ZM521.791 860.915C520.514 759.778 485.793 667.286 380.411 595.18C276.312 523.953 104.271 473.329 -169.757 450.968L-172.034 478.875C100.546 501.118 266.62 551.248 364.599 618.289C461.294 684.451 492.612 767.743 493.793 861.269L521.791 860.915ZM-160.065 456.05L-160.371 455.677L-182.032 473.42L-181.726 473.793L-160.065 456.05ZM-172.339 478.502C100.514 500.741 266.749 550.911 364.821 618.018C461.61 684.248 492.956 767.635 494.139 861.271L522.136 860.918C520.858 759.673 486.111 667.085 380.634 594.91C276.44 523.614 104.236 472.952 -170.064 450.595L-172.339 478.502ZM494.139 861.271C495.177 943.582 472.896 1033.28 449.69 1126.31L476.857 1133.09C499.837 1040.97 523.229 947.548 522.136 860.918L494.139 861.271ZM449.69 1126.31C442.679 1154.41 435.605 1182.77 429.169 1211.08L456.472 1217.29C462.833 1189.31 469.835 1161.23 476.857 1133.09L449.69 1126.31ZM463.16 1216.92L462.87 1216.57L441.209 1234.31L441.499 1234.67L463.16 1216.92ZM465.811 1227.96C472.043 1193.92 479.348 1159.55 486.693 1124.99L459.304 1119.17C451.974 1153.66 444.584 1188.42 438.269 1222.92L465.811 1227.96ZM486.693 1124.99C506.974 1029.58 527.732 932.297 524.746 842.231L496.761 843.158C499.612 929.16 479.764 1022.92 459.304 1119.17L486.693 1124.99ZM524.746 842.23C521.204 735.461 484.219 637.934 375.123 563.825C267.258 490.552 90.1703 441.078 -191.245 425.134L-192.828 453.089C86.9996 468.943 257.882 518.032 359.389 586.986C459.666 655.105 493.454 743.469 496.761 843.159L524.746 842.23ZM-181.206 430.24L-181.505 429.875L-203.166 447.618L-202.867 447.983L-181.206 430.24ZM-193.126 452.724C86.9658 468.567 258.007 517.691 359.607 586.711C459.976 654.894 493.794 743.354 497.104 843.154L525.088 842.226C521.544 735.349 484.531 637.725 375.341 563.55C267.381 490.21 90.134 440.701 -191.545 424.769L-193.126 452.724ZM497.104 843.154C499.959 929.201 480.105 1022.98 459.642 1119.25L487.03 1125.07C507.315 1029.64 528.078 932.338 525.088 842.225L497.104 843.154ZM459.642 1119.25C452.291 1153.83 444.879 1188.69 438.554 1223.28L466.097 1228.31C472.338 1194.18 479.664 1159.72 487.03 1125.07L459.642 1119.25ZM450.725 1239.7L450.728 1239.7L453.93 1211.89L453.926 1211.89L450.725 1239.7ZM474.356 1230.59L474.057 1230.23L452.396 1247.97L452.695 1248.34L474.356 1230.59ZM477.091 1241.04C482.734 1200.81 490.026 1159.85 497.393 1118.48L469.827 1113.57C462.477 1154.84 455.089 1196.33 449.362 1237.16L477.091 1241.04ZM497.393 1118.48C515.069 1019.23 533.28 917.361 528.099 823.186L500.142 824.724C505.11 915.038 487.641 1013.54 469.827 1113.57L497.393 1118.48ZM528.099 823.186C521.913 710.747 482.272 608.152 369.465 532.234C257.815 457.096 76.0158 409.172 -211.781 400.498L-212.625 428.485C73.4275 437.107 248.784 484.768 353.832 555.464C457.722 625.38 494.318 718.869 500.142 824.724L528.099 823.186ZM-201.372 405.62L-201.666 405.261L-223.328 423.003L-223.033 423.362L-201.372 405.62ZM-212.917 428.126C73.3939 436.729 248.907 484.422 354.048 555.18C458.03 625.159 494.658 718.743 500.487 824.71L528.445 823.172C522.253 710.624 482.583 607.933 369.681 531.951C257.937 456.748 75.9796 408.794 -212.076 400.138L-212.917 428.126ZM500.487 824.71C505.458 915.065 487.985 1013.58 470.169 1113.64L497.735 1118.55C515.413 1019.27 533.629 917.388 528.445 823.172L500.487 824.71ZM470.169 1113.64C462.802 1155.01 455.393 1196.6 449.661 1237.52L477.39 1241.41C483.038 1201.08 490.352 1160.02 497.735 1118.55L470.169 1113.64ZM487.257 1246.34L486.947 1245.97L465.286 1263.71L465.596 1264.09L487.257 1246.34ZM490.048 1256.22C494.639 1209.88 501.597 1162.14 508.669 1113.67L480.962 1109.62C473.908 1157.97 466.85 1206.37 462.185 1253.46L490.048 1256.22ZM508.669 1113.67C523.809 1009.87 539.538 902.503 531.782 803.42L503.868 805.605C511.333 900.977 496.209 1005.1 480.962 1109.62L508.669 1113.67ZM531.782 803.42C522.54 685.352 479.8 577.751 363.275 500.295C247.819 423.549 61.6837 377.634 -231.34 377.096L-231.391 405.096C59.7113 405.63 239.169 451.421 347.775 523.613C455.313 595.096 495.105 693.667 503.868 805.605L531.782 803.42ZM-220.535 382.225L-220.82 381.877L-242.481 399.62L-242.196 399.967L-220.535 382.225ZM-231.675 404.749C59.6772 405.256 239.288 451.074 347.986 523.327C455.616 594.871 495.441 693.537 504.212 805.586L532.126 803.401C522.876 685.224 480.104 577.527 363.486 500.009C247.936 423.201 61.6472 377.259 -231.626 376.749L-231.675 404.749ZM504.212 805.586C511.68 900.991 496.553 1005.13 481.304 1109.68L509.011 1113.72C524.153 1009.91 539.885 902.517 532.126 803.401L504.212 805.586ZM481.304 1109.68C474.234 1158.14 467.158 1206.64 462.493 1253.84L490.357 1256.59C494.948 1210.16 501.923 1162.3 509.011 1113.72L481.304 1109.68ZM465.595 1264.09L465.596 1264.09L487.257 1246.34L487.256 1246.34L465.595 1264.09ZM482.985 1249.26L482.617 1249.57L500.359 1271.23L500.728 1270.93L482.985 1249.26ZM505.456 1261.35C508.755 1212.82 514.601 1162.32 520.575 1110.78L492.761 1107.55C486.803 1158.97 480.873 1210.14 477.52 1259.45L505.456 1261.35ZM520.575 1110.78C533.228 1001.58 546.509 887.508 535.685 782.528L507.833 785.4C518.283 886.763 505.495 997.649 492.761 1107.56L520.575 1110.78ZM535.685 782.528C522.946 658.972 476.623 546.542 356.377 467.907C237.096 389.903 47.056 346.519 -249.879 354.986L-249.081 382.975C45.7388 374.568 228.874 417.982 341.052 491.341C452.264 564.068 495.683 667.567 507.833 785.4L535.685 782.528ZM-238.649 360.11L-238.928 359.77L-260.589 377.512L-260.311 377.852L-238.649 360.11ZM-249.358 382.635C45.7048 374.194 228.989 417.631 341.259 491.05C452.563 563.836 496.016 667.43 508.176 785.371L536.028 782.499C523.279 658.836 476.923 546.311 356.584 467.616C237.21 389.552 47.0194 346.145 -250.158 354.647L-249.358 382.635ZM508.176 785.371C518.629 886.775 505.841 997.682 493.103 1107.6L520.917 1110.83C533.574 1001.61 546.855 887.52 536.028 782.5L508.176 785.371ZM493.104 1107.6C487.16 1158.89 481.243 1209.94 477.887 1259.14L505.822 1261.05C509.125 1212.63 514.958 1162.25 520.917 1110.83L493.104 1107.6ZM500.726 1270.93L500.728 1270.93L482.985 1249.26L482.983 1249.27L500.726 1270.93ZM500.206 1235.16L499.843 1235.46L517.586 1257.12L517.949 1256.82L500.206 1235.16ZM522.696 1247.02C524.999 1202.94 529.037 1157.07 533.171 1110.11L505.279 1107.66C501.154 1154.51 497.068 1200.9 494.734 1245.56L522.696 1247.02ZM533.171 1110.11C543.356 994.453 554.186 872.163 539.65 760.049L511.883 763.649C525.954 872.184 515.525 991.311 505.279 1107.66L533.171 1110.11ZM539.65 760.049C522.951 631.256 472.536 514.311 348.578 434.961C225.473 356.158 32.02 315.901 -267.356 334.223L-265.645 362.171C31.4054 343.991 217.735 384.45 333.482 458.543C448.375 532.09 495.88 640.222 511.883 763.649L539.65 760.049ZM-255.67 339.326L-255.942 338.994L-277.603 356.736L-277.331 357.068L-255.67 339.326ZM-265.916 361.839C31.3693 343.618 217.846 384.098 333.684 458.248C448.668 531.852 496.21 640.079 512.227 763.613L539.994 760.013C523.282 631.113 472.831 514.074 348.78 434.666C225.582 355.805 31.9816 315.528 -267.629 333.891L-265.916 361.839ZM512.227 763.614C526.303 872.184 515.87 991.33 505.624 1107.7L533.516 1110.15C543.702 994.472 554.535 872.162 539.994 760.013L512.227 763.614ZM505.624 1107.7C501.508 1154.43 497.433 1200.7 495.095 1245.26L523.056 1246.72C525.364 1202.75 529.391 1156.99 533.516 1110.15L505.624 1107.7ZM517.947 1256.82L517.949 1256.82L500.206 1235.16L500.204 1235.16L517.947 1256.82ZM517.473 1221.02L517.114 1221.31L534.857 1242.97L535.215 1242.68L517.473 1221.02ZM539.976 1232.66C541.426 1193.82 543.943 1153.44 546.529 1112.05L518.583 1110.3C516.001 1151.63 513.46 1192.36 511.995 1231.62L539.976 1232.66ZM546.529 1112.05C554.228 988.688 562.554 856.237 543.464 735.5L515.807 739.873C534.329 857.01 526.325 986.261 518.583 1110.3L546.529 1112.05ZM543.464 735.5C522.332 601.844 467.311 480.853 339.677 401.368C212.781 322.342 16.4782 285.884 -283.725 314.875L-281.034 342.746C16.623 314.001 205.596 350.854 324.876 425.136C443.419 498.959 495.475 611.274 515.807 739.873L543.464 735.5ZM-271.549 319.939L-271.814 319.615L-293.476 337.358L-293.21 337.682L-271.549 319.939ZM-281.298 342.422C16.5823 313.628 205.698 350.498 325.069 424.835C443.703 498.713 495.8 611.122 516.15 739.828L543.807 735.455C522.657 601.692 467.596 480.607 339.87 401.067C212.881 321.986 16.4351 285.512 -283.992 314.552L-281.298 342.422ZM516.15 739.828C534.677 857.004 526.672 986.275 518.929 1110.33L546.874 1112.08C554.575 988.701 562.902 856.231 543.807 735.455L516.15 739.828ZM518.929 1110.33C516.357 1151.54 513.819 1192.17 512.356 1231.33L540.336 1232.37C541.784 1193.63 544.299 1153.36 546.874 1112.08L518.929 1110.33ZM537.176 1222.98L537.175 1222.97L515.514 1240.72L515.515 1240.72L537.176 1222.98ZM534.78 1206.84L534.427 1207.13L552.169 1228.79L552.522 1228.5L534.78 1206.84ZM557.294 1218.28C558.046 1185.61 559.366 1151.76 560.718 1117.05L532.74 1115.96C531.389 1150.63 530.059 1184.7 529.302 1217.64L557.294 1218.28ZM560.719 1117.05C565.884 984.605 571.602 839.551 546.854 708.388L519.339 713.579C543.393 841.061 537.932 982.822 532.74 1115.96L560.719 1117.05ZM546.854 708.388C520.81 570.372 460.691 445.973 329.465 367.055C198.858 288.509 0.351378 256.598 -298.943 297.006L-295.196 324.755C1.32343 284.721 192.309 317.244 315.035 391.05C437.143 464.485 494.2 580.358 519.339 713.58L546.854 708.388ZM-286.239 302.009L-286.498 301.693L-308.159 319.436L-307.9 319.752L-286.239 302.009ZM-295.454 324.438C1.28176 284.349 192.406 316.884 315.223 390.742C437.421 464.229 494.519 580.194 519.676 713.523L547.191 708.332C521.129 570.21 460.969 445.717 329.653 366.747C198.954 288.148 0.307284 256.227 -299.203 296.69L-295.454 324.438ZM519.676 713.523C543.737 841.042 538.275 982.823 533.083 1115.98L561.062 1117.07C566.227 984.606 571.946 839.532 547.191 708.332L519.676 713.523ZM533.083 1115.98C531.737 1150.54 530.411 1184.51 529.655 1217.35L557.647 1217.99C558.398 1185.42 559.714 1151.67 561.062 1117.07L533.083 1115.98ZM552.126 1192.63L551.777 1192.92L569.52 1214.58L569.868 1214.29L552.126 1192.63ZM574.648 1203.88C574.884 1178.55 575.349 1152.46 575.827 1125.76L547.831 1125.26C547.354 1151.94 546.886 1178.15 546.649 1203.62L574.648 1203.88ZM575.827 1125.76C578.387 982.734 581.336 821.971 549.481 678.244L522.145 684.302C553.151 824.202 550.404 981.516 547.831 1125.26L575.827 1125.76ZM549.481 678.244C518.067 536.512 452.398 409.543 317.729 332.032C183.561 254.81 -16.4032 228.273 -312.907 280.737L-308.028 308.309C-14.5246 256.375 177.744 283.769 303.761 356.3C429.277 428.542 491.744 547.146 522.145 684.303L549.481 678.244ZM-299.637 285.652L-299.891 285.342L-321.552 303.084L-321.298 303.394L-299.637 285.652ZM-308.281 307.999C-14.5708 256.002 177.834 283.404 303.941 355.985C429.547 428.276 492.059 546.972 522.481 684.234L549.818 678.175C518.381 536.339 452.668 409.278 317.908 331.717C183.65 254.445 -16.4517 227.9 -313.162 280.427L-308.281 307.999ZM522.481 684.234C553.498 824.17 550.751 981.508 548.177 1125.27L576.173 1125.78C578.734 982.726 581.683 821.939 549.818 678.174L522.481 684.234ZM548.177 1125.27C547.7 1151.85 547.234 1177.96 546.997 1203.34L574.996 1203.6C575.231 1178.36 575.695 1152.37 576.173 1125.78L548.177 1125.27ZM574.917 1204.96L574.917 1204.96L547.077 1201.97L547.077 1201.97L574.917 1204.96ZM569.508 1178.39L569.163 1178.68L586.906 1200.34L587.251 1200.06L569.508 1178.39ZM592.034 1189.45C591.972 1172.98 591.96 1156.16 591.949 1139.03L563.949 1139.05C563.96 1156.17 563.972 1173.03 564.035 1189.56L592.034 1189.45ZM591.949 1139.03C591.853 983.961 591.822 803.469 550.96 644.635L523.843 651.612C563.665 806.404 563.853 983.22 563.949 1139.05L591.949 1139.03ZM550.96 644.635C514.004 500.982 443.172 373.222 307.156 297.849C171.499 222.674 -26.1969 201.194 -313.444 263.448L-307.513 290.812C-23.5439 229.269 166.303 251.807 293.584 322.34C420.506 392.673 488.006 512.308 523.843 651.612L550.96 644.635ZM-301.607 287.961L-301.009 287.471L-318.751 265.81L-319.349 266.299L-301.607 287.961ZM-306.919 290.323C-23.0771 228.907 166.7 251.528 293.945 322.12C420.833 392.515 488.331 512.192 524.177 651.531L551.294 644.555C514.33 500.869 443.504 373.072 307.528 297.636C171.91 222.398 -25.7164 200.83 -312.841 262.957L-306.919 290.323ZM524.177 651.531C564.009 806.369 564.197 983.21 564.294 1139.06L592.294 1139.04C592.198 983.951 592.166 803.434 551.294 644.555L524.177 651.531ZM564.294 1139.06C564.304 1156.08 564.316 1172.84 564.378 1189.28L592.377 1189.17C592.316 1172.79 592.304 1156.07 592.294 1139.04L564.294 1139.06ZM587.249 1200.06L587.251 1200.06L569.508 1178.39L569.506 1178.4L587.249 1200.06ZM586.923 1164.13L586.58 1164.41L604.322 1186.07L604.665 1185.79L586.923 1164.13ZM609.449 1175.01C609.358 1169.42 609.266 1163.79 609.174 1158.12L581.178 1158.57C581.269 1164.24 581.361 1169.88 581.453 1175.47L609.449 1175.01ZM609.174 1158.12C606.454 989.81 603.222 784.243 550.847 607.221L523.998 615.165C575.093 787.861 578.444 989.445 581.178 1158.57L609.174 1158.12ZM550.847 607.221C508.803 465.11 434.559 339.624 301.904 266.679C169.409 193.823 -18.56 174.931 -284.729 239.724L-278.107 266.93C-15.6432 203.038 164.367 223.004 288.412 291.215C412.298 359.337 483.158 477.126 523.998 615.165L550.847 607.221ZM-272.547 264.158L-271.923 263.646L-289.665 241.985L-290.289 242.497L-272.547 264.158ZM-277.488 266.42C-15.162 202.675 164.771 222.73 288.778 290.999C412.627 359.182 483.483 477.005 524.331 615.072L551.181 607.128C509.129 464.993 434.892 339.478 302.282 266.471C169.829 193.551 -18.0627 174.565 -284.1 239.212L-277.488 266.42ZM524.331 615.072C575.44 787.813 578.792 989.423 581.525 1158.57L609.521 1158.12C606.802 989.787 603.569 784.195 551.181 607.128L524.331 615.072ZM581.525 1158.57C581.616 1164.15 581.705 1169.69 581.796 1175.19L609.792 1174.73C609.702 1169.23 609.612 1163.7 609.521 1158.12L581.525 1158.57ZM604.367 1149.84L604.028 1150.12L621.77 1171.78L622.109 1171.5L604.367 1149.84ZM626.893 1160.55C621.784 982.143 612.989 756.117 548.666 565.736L522.139 574.698C584.915 760.5 593.779 982.374 598.905 1161.35L626.893 1160.55ZM548.666 565.736C501.68 426.658 424.502 304.952 295.942 235.108C167.367 165.256 -9.88483 148.751 -253.865 214.264L-246.604 241.306C-6.77235 176.907 162.455 194.453 282.575 259.712C402.711 324.979 476.445 439.445 522.139 574.698L548.666 565.736ZM-241.363 238.615L-240.713 238.083L-258.456 216.422L-259.106 216.954L-241.363 238.615ZM-245.96 240.775C-6.27449 176.544 162.87 194.184 282.947 259.503C403.04 324.83 476.768 439.322 522.468 574.592L548.996 565.63C502.004 426.538 424.836 304.811 296.326 234.906C167.8 164.992 -9.36785 148.385 -253.208 213.73L-245.96 240.775ZM522.468 574.592C585.227 760.353 594.117 982.122 599.244 1161.07L627.232 1160.27C622.122 981.887 613.301 755.969 548.996 565.63L522.468 574.592ZM621.841 1135.53L621.504 1135.8L639.246 1157.47L639.583 1157.19L621.841 1135.53ZM644.364 1146.07C636.84 959.395 620.032 718.427 543.92 520.055L517.778 530.085C592.059 723.686 608.859 960.421 616.386 1147.2L644.364 1146.07ZM543.92 520.055C492.371 385.708 413.035 269.403 289.505 203.313C165.814 137.137 0.372384 122.665 -220.458 186.754L-212.654 213.645C3.57654 150.89 160.98 166.306 276.296 228.002C391.775 289.784 467.61 399.337 517.778 530.085L543.92 520.055ZM-207.685 211.03L-206.999 210.468L-224.742 188.807L-225.428 189.369L-207.685 211.03ZM-211.977 213.085C4.10151 150.52 161.414 166.04 276.681 227.796C392.11 289.639 467.932 399.21 518.1 529.962L544.242 519.932C492.694 385.584 413.375 269.267 289.904 203.115C166.27 136.876 0.920312 122.291 -219.764 186.19L-211.977 213.085ZM518.1 529.963C592.37 723.525 609.189 960.162 616.723 1146.92L644.701 1145.8C637.17 959.133 620.342 718.264 544.242 519.932L518.1 529.963ZM639.337 1121.2L639.004 1121.47L656.746 1143.13L657.079 1142.86L639.337 1121.2ZM661.856 1131.58C650.812 917.311 620.867 628.248 509.324 413.83L484.484 426.752C592.958 635.269 622.852 918.815 633.894 1133.02L661.856 1131.58ZM509.324 413.83C450.901 301.527 369.558 208.69 255.899 158.364C142.147 107.996 -1.93496 101.11 -184.004 156.794L-175.815 183.57C1.65482 129.293 138.522 137.013 244.562 183.966C350.696 230.96 427.991 318.159 484.484 426.752L509.324 413.83ZM-171.038 181.013L-170.33 180.433L-188.073 158.772L-188.781 159.352L-171.038 181.013ZM-175.117 182.994C2.19953 128.91 138.969 136.736 244.952 183.747C351.028 230.799 428.299 318.008 484.788 426.595L509.628 413.673C451.211 301.38 369.897 208.538 256.305 158.152C142.618 107.724 -1.36409 100.724 -183.286 156.212L-175.117 182.994ZM484.788 426.595C593.251 635.086 623.173 918.538 634.227 1132.75L662.189 1131.31C651.133 917.03 621.159 628.063 509.628 413.673L484.788 426.595ZM656.859 1106.85L656.528 1107.12L674.27 1128.78L674.601 1128.51L656.859 1106.85ZM679.372 1117.08C665.85 900.269 626.356 604.151 509.083 385.736L484.414 398.981C598.643 611.729 637.942 902.631 651.426 1118.82L679.372 1117.08ZM509.084 385.736C449.716 275.162 369.846 183.453 262.299 132.643C154.503 81.7153 20.7982 72.7699 -144.29 124.229L-135.958 150.96C23.9286 101.123 150.181 110.641 250.338 157.96C350.745 205.397 426.824 291.718 484.414 398.981L509.084 385.736ZM-131.253 148.425L-130.541 147.842L-148.284 126.181L-148.995 126.764L-131.253 148.425ZM-135.258 150.381C24.479 100.75 150.636 110.377 250.735 157.753C351.084 205.247 427.138 291.574 484.721 398.822L509.39 385.577C450.031 275.02 370.192 183.313 262.714 132.445C154.985 81.4578 21.3793 72.3929 -143.566 123.642L-135.258 150.381ZM484.721 398.822C598.931 611.54 638.256 902.353 651.757 1118.55L679.703 1116.8C666.163 899.987 626.643 603.961 509.39 385.577L484.721 398.822ZM674.405 1092.47L674.076 1092.74L691.818 1114.41L692.147 1114.14L674.405 1092.47ZM696.91 1102.56C680.981 883.785 632.082 581.505 509.732 359.249L485.203 372.752C604.577 589.601 653.137 886.953 668.984 1104.59L696.91 1102.56ZM509.732 359.249C461.943 272.44 402.62 197.221 329.087 144.07L312.684 166.763C381.902 216.794 438.747 288.364 485.203 372.752L509.732 359.249ZM329.087 144.07C255.365 90.7822 167.768 59.9954 64.35 61.6538L64.7989 89.6502C161.943 88.0924 243.669 116.877 312.684 166.763L329.087 144.07ZM64.3503 61.6538C12.8452 62.4786 -42.3943 71.3527 -101.607 89.3188L-93.4768 116.113C-36.4442 98.8079 16.2048 90.4284 64.7986 89.6502L64.3503 61.6538ZM-88.6704 113.546L-87.9646 112.968L-105.707 91.307L-106.413 91.8851L-88.6704 113.546ZM-92.7862 115.539C-36.0289 98.388 16.3868 90.0772 64.7833 89.302L64.3348 61.3056C13.0405 62.1272 -41.9551 70.9283 -100.886 88.7361L-92.7862 115.539ZM64.7833 89.302C162.007 87.7442 243.805 116.555 312.88 166.481L329.282 143.788C255.501 90.4607 167.833 59.6473 64.3348 61.3056L64.7833 89.302ZM312.88 166.481C382.142 216.546 439.023 288.155 485.502 372.588L510.031 359.085C462.218 272.23 402.859 196.972 329.283 143.788L312.88 166.481ZM485.502 372.589C604.862 589.409 653.439 886.672 669.311 1104.32L697.237 1102.29C681.282 883.501 632.366 581.31 510.031 359.085L485.502 372.589ZM692.145 1114.14L692.147 1114.14L674.405 1092.47L674.403 1092.48L692.145 1114.14ZM691.972 1078.08L691.647 1078.35L709.39 1100.01L709.715 1099.75L691.972 1078.08ZM714.471 1088.02C695.266 856.376 631.986 527.757 490.693 299.345L466.881 314.075C604.687 536.851 667.485 860.18 686.566 1090.34L714.471 1088.02ZM490.693 299.345C442.125 220.831 384.009 153.608 314.764 106.338L298.978 129.463C364.1 173.919 419.718 237.832 466.881 314.075L490.693 299.345ZM314.764 106.338C245.362 58.9607 165.062 31.8385 72.8575 33.3145L73.3056 61.3109C159.346 59.9336 234.03 85.1273 298.978 129.463L314.764 106.338ZM72.8564 33.3146C31.8332 33.9743 -11.3952 40.2941 -56.909 52.8834L-49.4443 79.8701C-6.00967 67.8558 34.8602 61.9292 73.3067 61.3109L72.8564 33.3146ZM-44.3054 77.2073L-43.6335 76.657L-61.3759 54.9958L-62.0479 55.5462L-44.3054 77.2073ZM-48.7901 79.3246C-5.60631 67.4408 35.0404 61.5781 73.2922 60.9647L72.8433 32.9683C32.0302 33.6227 -10.9633 39.8741 -56.2193 52.3282L-48.7901 79.3246ZM73.2923 60.9647C159.409 59.5836 234.16 84.8012 299.168 129.179L314.955 106.054C245.492 58.635 165.125 31.4883 72.8433 32.9683L73.2923 60.9647ZM299.168 129.179C364.331 173.665 419.982 237.613 467.171 313.897L490.983 299.166C442.389 220.611 384.24 153.353 314.955 106.054L299.168 129.179ZM467.171 313.896C604.962 536.65 667.781 859.891 686.889 1090.08L714.794 1087.76C695.561 856.083 632.26 527.555 490.983 299.167L467.171 313.896ZM709.713 1099.75L709.715 1099.75L691.972 1078.08L691.97 1078.09L709.713 1099.75ZM709.562 1063.68L709.239 1063.94L726.981 1085.6L727.304 1085.34L709.562 1063.68ZM732.051 1073.48C716.528 905.941 674.427 686.745 598.275 490.702L572.175 500.841C647.185 693.943 688.83 910.497 704.17 1076.06L732.051 1073.48ZM598.275 490.702C541.431 344.367 465.156 209.726 365.735 119.44L346.911 140.169C441.762 226.305 516.068 356.403 572.175 500.841L598.275 490.702ZM365.735 119.44C265.788 28.6778 142.342 -17.2214 -6.54735 15.1001L-0.607356 42.4628C138.153 12.3403 252.623 54.5449 346.911 140.169L365.735 119.44ZM-6.54635 15.0999C-8.30993 15.4826 -10.0599 15.877 -11.7789 16.269L-5.55319 43.5681C-3.87558 43.1855 -2.23361 42.8157 -0.608332 42.463L-6.54635 15.0999ZM0.205165 40.7491L0.811297 40.2527L-16.9311 18.5915L-17.5373 19.088L0.205165 40.7491ZM-4.95683 43.0738C-3.52152 42.7476 -2.09773 42.4297 -0.687632 42.1238L-6.6234 14.7602C-8.14402 15.09 -9.6605 15.4288 -11.163 15.7703L-4.95683 43.0738ZM-0.685448 42.1233C138.201 11.9724 252.771 54.2137 347.138 139.913L365.963 119.185C265.936 28.3463 142.391 -17.5892 -6.62558 14.7607L-0.685448 42.1233ZM347.139 139.913C442.033 226.09 516.368 356.236 572.493 500.721L598.593 490.583C541.731 344.2 465.426 209.511 365.962 119.185L347.139 139.913ZM572.493 500.721C647.481 693.764 689.131 910.239 704.491 1075.8L732.371 1073.22C716.828 905.681 674.722 686.564 598.593 490.583L572.493 500.721ZM727.302 1085.34L727.304 1085.34L709.562 1063.68L709.56 1063.68L727.302 1085.34ZM727.166 1049.26L726.847 1049.52L744.589 1071.18L744.908 1070.92L727.166 1049.26ZM749.645 1058.93C731.485 881.009 679.417 642.977 590.228 435.645L564.507 446.71C652.382 650.987 703.866 886.168 721.79 1061.77L749.645 1058.93ZM590.228 435.645C529.555 294.606 451.213 166.617 353.671 81.736L335.291 102.858C428.339 183.828 504.625 307.509 564.507 446.71L590.228 435.645ZM353.671 81.7356C263.336 3.13378 156.115 -38.7588 31.9813 -19.0036L36.382 8.64842C150.705 -9.54549 249.852 28.5164 335.291 102.859L353.671 81.7356ZM43.0529 5.65298L43.5872 5.2153L25.8448 -16.4459L25.3104 -16.0082L43.0529 5.65298ZM36.8952 8.21408C151.087 -9.77979 250.141 28.3102 335.513 102.601L353.894 81.4786C263.636 2.93636 156.525 -38.9822 32.5368 -19.4446L36.8952 8.21408ZM335.513 102.601C428.607 183.61 504.921 307.333 564.823 446.579L590.544 435.514C529.851 294.429 451.481 166.398 353.894 81.4786L335.513 102.601ZM564.823 446.579C652.674 650.798 704.159 885.903 722.109 1061.51L749.964 1058.67C731.777 880.743 679.709 642.787 590.544 435.514L564.823 446.579ZM744.789 1034.82L744.47 1035.08L762.213 1056.75L762.532 1056.48L744.789 1034.82ZM767.256 1044.37C746.293 855.829 682.96 597.734 579.911 379.551L554.593 391.509C656.153 606.54 718.76 861.578 739.427 1047.46L767.256 1044.37ZM579.911 379.551C516.02 244.276 436.344 123.23 341.062 43.8985L323.146 65.4165C413.995 141.057 491.538 258.004 554.593 391.509L579.911 379.551ZM341.062 43.8982C262.59 -21.4324 172.975 -58.8716 72.9828 -51.7396L74.9748 -23.8105C166.063 -30.3075 248.78 3.50353 323.147 65.4168L341.062 43.8982ZM82.85 -26.9445L83.3186 -27.3283L65.5761 -48.9894L65.1076 -48.6056L82.85 -26.9445ZM75.4226 -24.1928C166.416 -30.5468 249.057 3.28618 323.364 65.1532L341.279 43.6351C262.876 -21.6429 173.352 -59.0993 73.4721 -52.1248L75.4226 -24.1928ZM323.364 65.1531C414.256 140.83 491.829 257.822 554.904 391.369L580.222 379.411C516.31 244.094 436.605 123.003 341.28 43.6352L323.364 65.1531ZM554.904 391.369C656.439 606.345 719.046 861.305 739.744 1047.2L767.572 1044.11C746.579 855.554 683.246 597.539 580.222 379.411L554.904 391.369ZM762.53 1056.49L762.532 1056.48L744.789 1034.82L744.787 1034.82L762.53 1056.49ZM762.427 1020.38L762.11 1020.64L779.852 1042.3L780.169 1042.04L762.427 1020.38ZM784.881 1029.8C760.977 830.618 685.121 551.545 567.698 323.258L542.799 336.065C658.56 561.121 733.535 836.941 757.081 1033.13L784.881 1029.8ZM567.698 323.258C501.233 194.039 420.904 80.0053 328.202 6.19193L310.76 28.0964C399.077 98.418 477.207 208.543 542.799 336.065L567.698 323.258ZM328.201 6.19157C262.168 -46.3819 189.313 -78.9495 110.499 -81.335L109.652 -53.3478C180.926 -51.1905 248.133 -21.7656 310.761 28.0967L328.201 6.19157ZM118.947 -56.5108L119.357 -56.8472L101.615 -78.5084L101.204 -78.172L118.947 -56.5108ZM110.043 -53.6848C181.252 -51.4321 248.4 -21.9956 310.973 27.8271L328.414 5.92268C262.441 -46.6073 189.659 -79.1801 110.929 -81.6708L110.043 -53.6848ZM310.973 27.8275C399.334 98.1785 477.494 208.344 543.106 335.908L568.006 323.101C501.52 193.839 421.16 79.7652 328.414 5.92237L310.973 27.8275ZM543.106 335.908C658.84 560.914 733.817 836.655 757.398 1032.88L785.198 1029.54C761.259 830.331 685.401 551.338 568.006 323.101L543.106 335.908ZM-150.595 505.411C114.139 533.226 275.269 584.1 369.817 649.18C416.841 681.548 447.233 717.32 465.901 755.492C484.594 793.717 491.916 835.142 491.618 879.338L519.617 879.527C519.937 832.088 512.074 786.173 491.054 743.191C470.009 700.156 436.16 660.853 385.692 626.115C285.255 556.982 118.391 505.519 -147.67 477.564L-150.595 505.411ZM491.618 879.337C491.083 958.355 466.323 1044.46 440.272 1134.66L467.172 1142.43C492.936 1053.23 519.051 963.169 519.617 879.527L491.618 879.337ZM440.272 1134.66C433.937 1156.6 427.543 1178.74 421.475 1200.92L448.483 1208.3C454.49 1186.35 460.828 1164.4 467.172 1142.43L440.272 1134.66ZM445.809 1195.74L445.538 1195.41L423.877 1213.15L424.148 1213.48L445.809 1195.74ZM448.211 1207.97C454.199 1186.09 460.517 1164.21 466.839 1142.33L439.939 1134.56C433.625 1156.41 427.253 1178.48 421.204 1200.58L448.211 1207.97ZM466.84 1142.33C492.597 1053.14 518.708 963.109 519.272 879.517L491.273 879.328C490.74 958.294 465.985 1044.38 439.939 1134.56L466.84 1142.33ZM519.272 879.517C519.592 832.132 511.735 786.268 490.733 743.332C469.706 700.344 435.888 661.083 385.468 626.38C285.127 557.317 118.428 505.896 -147.356 477.945L-150.285 505.792C114.174 533.603 275.14 584.434 369.593 649.444C416.57 681.778 446.932 717.509 465.581 755.635C484.256 793.814 491.571 835.187 491.273 879.328L519.272 879.517ZM-137.99 482.997L-138.302 482.616L-159.963 500.359L-159.651 500.74L-137.99 482.997Z" fill="#004AAD" mask="url(#path-1-inside-1_737_8678)"/>
</svg>
