<svg width="13" height="15" viewBox="0 0 13 15" fill="none" xmlns="http://www.w3.org/2000/svg">
<path d="M4.312 3.25336C4.31221 2.78011 4.44668 2.31663 4.69979 1.91675C4.95289 1.51686 5.31425 1.19699 5.74188 0.994272C6.16952 0.791555 6.64589 0.714312 7.11567 0.771515C7.58545 0.828718 8.02937 1.01802 8.39586 1.31743C8.76236 1.61685 9.03639 2.01409 9.18614 2.46303C9.33589 2.91196 9.3552 3.39417 9.24185 3.85364C9.12849 4.31312 8.88711 4.73101 8.54575 5.05878C8.20438 5.38655 7.77703 5.61076 7.31333 5.70536V7.08669H9.48C9.87782 7.08669 10.2594 7.24473 10.5407 7.52603C10.822 7.80734 10.98 8.18887 10.98 8.58669V9.13669C11.586 9.26217 12.124 9.60771 12.4901 10.1066C12.8563 10.6055 13.0246 11.2223 12.9626 11.8381C12.9006 12.4538 12.6127 13.0247 12.1545 13.4406C11.6962 13.8565 11.1002 14.0879 10.4813 14.09C9.86033 14.0918 9.26088 13.8625 8.7996 13.4467C8.33832 13.0309 8.04819 12.4584 7.98566 11.8406C7.92313 11.2227 8.09266 10.6037 8.46128 10.1039C8.8299 9.60418 9.37124 9.25941 9.98 9.13669V8.58669C9.98 8.45408 9.92732 8.32691 9.83355 8.23314C9.73978 8.13937 9.6126 8.08669 9.48 8.08669H4.14666C4.01405 8.08669 3.88688 8.13937 3.79311 8.23314C3.69934 8.32691 3.64666 8.45408 3.64666 8.58669V9.13669C4.25264 9.26217 4.79065 9.60771 5.1568 10.1066C5.52295 10.6055 5.69129 11.2223 5.6293 11.8381C5.56731 12.4538 5.2794 13.0247 4.82116 13.4406C4.36291 13.8565 3.76683 14.0879 3.148 14.09C2.527 14.0918 1.92755 13.8625 1.46627 13.4467C1.00499 13.0309 0.714859 12.4584 0.652326 11.8406C0.589793 11.2227 0.759326 10.6037 1.12794 10.1039C1.49656 9.60418 2.0379 9.25941 2.64666 9.13669V8.58669C2.64666 8.18887 2.8047 7.80734 3.086 7.52603C3.36731 7.24473 3.74884 7.08669 4.14666 7.08669H6.31333V5.70536C5.7483 5.58983 5.2405 5.2827 4.87583 4.83591C4.51115 4.38911 4.31198 3.83008 4.312 3.25336Z" fill="#242220"/>
</svg>
