<svg width="21" height="21" viewBox="0 0 21 21" fill="none" xmlns="http://www.w3.org/2000/svg">
<path d="M18.88 11.636C18.7197 11.4535 18.6313 11.2189 18.6313 10.976C18.6313 10.7331 18.7197 10.4985 18.88 10.316L20.16 8.87597C20.301 8.71864 20.3886 8.52067 20.4102 8.31048C20.4317 8.10028 20.3862 7.88866 20.28 7.70597L18.28 4.24597C18.1749 4.06349 18.0149 3.91885 17.8227 3.83266C17.6306 3.74646 17.4162 3.72313 17.21 3.76597L15.33 4.14597C15.0908 4.1954 14.8417 4.15556 14.6299 4.03397C14.418 3.91238 14.258 3.71745 14.18 3.48597L13.57 1.65597C13.5029 1.45735 13.3751 1.28483 13.2046 1.16281C13.0342 1.04079 12.8296 0.975428 12.62 0.975969H8.62C8.40193 0.964587 8.18613 1.0249 8.00556 1.14768C7.82499 1.27047 7.68957 1.44899 7.62 1.65597L7.05999 3.48597C6.982 3.71745 6.82197 3.91238 6.61011 4.03397C6.39825 4.15556 6.14921 4.1954 5.90999 4.14597L3.98 3.76597C3.78455 3.73835 3.58529 3.76919 3.40734 3.85461C3.22939 3.94003 3.0807 4.0762 2.98 4.24597L0.979995 7.70597C0.871155 7.88662 0.822217 8.09705 0.840178 8.30719C0.858138 8.51733 0.942077 8.71641 1.07999 8.87597L2.34999 10.316C2.51031 10.4985 2.59873 10.7331 2.59873 10.976C2.59873 11.2189 2.51031 11.4535 2.34999 11.636L1.07999 13.076C0.942077 13.2355 0.858138 13.4346 0.840178 13.6447C0.822217 13.8549 0.871155 14.0653 0.979995 14.246L2.98 17.706C3.08509 17.8884 3.24511 18.0331 3.43725 18.1193C3.62938 18.2055 3.84382 18.2288 4.05 18.186L5.92999 17.806C6.16921 17.7565 6.41825 17.7964 6.63011 17.918C6.84197 18.0396 7.002 18.2345 7.08 18.466L7.68999 20.296C7.75957 20.503 7.89499 20.6815 8.07556 20.8043C8.25613 20.927 8.47193 20.9874 8.68999 20.976H12.69C12.8996 20.9765 13.1042 20.9111 13.2746 20.7891C13.4451 20.6671 13.5729 20.4946 13.64 20.296L14.25 18.466C14.328 18.2345 14.488 18.0396 14.6999 17.918C14.9117 17.7964 15.1608 17.7565 15.4 17.806L17.28 18.186C17.4862 18.2288 17.7006 18.2055 17.8927 18.1193C18.0849 18.0331 18.2449 17.8884 18.35 17.706L20.35 14.246C20.4562 14.0633 20.5017 13.8517 20.4802 13.6415C20.4586 13.4313 20.371 13.2333 20.23 13.076L18.88 11.636ZM17.39 12.976L18.19 13.876L16.91 16.096L15.73 15.856C15.0098 15.7087 14.2606 15.8311 13.6246 16.1998C12.9886 16.5685 12.5101 17.1578 12.28 17.856L11.9 18.976H9.33999L8.97999 17.836C8.74985 17.1378 8.27138 16.5485 7.6354 16.1798C6.99942 15.8111 6.25022 15.6887 5.52999 15.836L4.34999 16.076L3.05 13.866L3.84999 12.966C4.34195 12.4159 4.61393 11.7039 4.61393 10.966C4.61393 10.228 4.34195 9.51599 3.84999 8.96597L3.05 8.06597L4.32999 5.86597L5.50999 6.10597C6.23022 6.25319 6.97942 6.13085 7.6154 5.76217C8.25138 5.39349 8.72985 4.80413 8.95999 4.10597L9.33999 2.97597H11.9L12.28 4.11597C12.5101 4.81413 12.9886 5.40349 13.6246 5.77217C14.2606 6.14085 15.0098 6.26319 15.73 6.11597L16.91 5.87597L18.19 8.09597L17.39 8.99597C16.9036 9.54473 16.635 10.2527 16.635 10.986C16.635 11.7193 16.9036 12.4272 17.39 12.976ZM10.62 6.97597C9.82887 6.97597 9.05551 7.21057 8.39771 7.65009C7.73992 8.08962 7.22723 8.71433 6.92448 9.44524C6.62173 10.1761 6.54251 10.9804 6.69685 11.7563C6.85119 12.5323 7.23216 13.245 7.79157 13.8044C8.35098 14.3638 9.06371 14.7448 9.83963 14.8991C10.6156 15.0535 11.4198 14.9742 12.1507 14.6715C12.8816 14.3687 13.5063 13.856 13.9459 13.1982C14.3854 12.5405 14.62 11.7671 14.62 10.976C14.62 9.9151 14.1986 8.89769 13.4484 8.14754C12.6983 7.3974 11.6809 6.97597 10.62 6.97597ZM10.62 12.976C10.2244 12.976 9.83775 12.8587 9.50885 12.6389C9.17996 12.4191 8.92361 12.1068 8.77224 11.7413C8.62086 11.3759 8.58125 10.9738 8.65842 10.5858C8.73559 10.1978 8.92608 9.84146 9.20578 9.56176C9.48549 9.28205 9.84185 9.09157 10.2298 9.0144C10.6178 8.93723 11.0199 8.97684 11.3854 9.12821C11.7508 9.27958 12.0632 9.53593 12.2829 9.86483C12.5027 10.1937 12.62 10.5804 12.62 10.976C12.62 11.5064 12.4093 12.0151 12.0342 12.3902C11.6591 12.7653 11.1504 12.976 10.62 12.976Z" fill="#242220"/>
</svg>
