<svg width="19" height="21" viewBox="0 0 19 21"  xmlns="http://www.w3.org/2000/svg">
<path d="M3.98 20.1521C3.14666 20.1521 2.43833 19.8604 1.855 19.2771C1.27166 18.6938 0.979996 17.9854 0.979996 17.1521V3.1521C0.979996 2.31877 1.27166 1.61043 1.855 1.0271C2.43833 0.443766 3.14666 0.1521 3.98 0.1521H14.98V16.1521H3.98C3.69666 16.1521 3.45933 16.2481 3.268 16.4401C3.07666 16.6321 2.98066 16.8694 2.98 17.1521C2.97933 17.4348 3.07533 17.6724 3.268 17.8651C3.46066 18.0578 3.698 18.1534 3.98 18.1521H16.98V2.1521H18.98V20.1521H3.98ZM3.98 14.1521H12.98V2.1521H3.98C3.69666 2.1521 3.45933 2.2481 3.268 2.4401C3.07666 2.6321 2.98066 2.86943 2.98 3.1521V14.3271C3.14666 14.2771 3.30933 14.2354 3.468 14.2021C3.62666 14.1688 3.79733 14.1521 3.98 14.1521ZM4.73 11.6521H5.93L6.58 9.8521H9.405L10.03 11.6521H11.23L8.605 4.6521H7.355L4.73 11.6521ZM6.93 8.8521L7.955 5.9521H8.005L9.03 8.8521H6.93Z" />
</svg>
