<svg width="13" height="13" viewBox="0 0 13 13"  xmlns="http://www.w3.org/2000/svg">
<path d="M1.64666 7.5507H5.64666C5.82347 7.5507 5.99304 7.48046 6.11807 7.35544C6.24309 7.23041 6.31333 7.06084 6.31333 6.88403V1.5507C6.31333 1.37389 6.24309 1.20432 6.11807 1.0793C5.99304 0.954271 5.82347 0.884033 5.64666 0.884033H1.64666C1.46985 0.884033 1.30028 0.954271 1.17526 1.0793C1.05023 1.20432 0.979996 1.37389 0.979996 1.5507V6.88403C0.979996 7.06084 1.05023 7.23041 1.17526 7.35544C1.30028 7.48046 1.46985 7.5507 1.64666 7.5507ZM0.979996 12.2174C0.979996 12.3942 1.05023 12.5637 1.17526 12.6888C1.30028 12.8138 1.46985 12.884 1.64666 12.884H5.64666C5.82347 12.884 5.99304 12.8138 6.11807 12.6888C6.24309 12.5637 6.31333 12.3942 6.31333 12.2174V9.5507C6.31333 9.37389 6.24309 9.20432 6.11807 9.0793C5.99304 8.95427 5.82347 8.88403 5.64666 8.88403H1.64666C1.46985 8.88403 1.30028 8.95427 1.17526 9.0793C1.05023 9.20432 0.979996 9.37389 0.979996 9.5507V12.2174ZM7.64666 12.2174C7.64666 12.3942 7.7169 12.5637 7.84192 12.6888C7.96695 12.8138 8.13652 12.884 8.31333 12.884H12.3133C12.4901 12.884 12.6597 12.8138 12.7847 12.6888C12.9098 12.5637 12.98 12.3942 12.98 12.2174V7.5507C12.98 7.37389 12.9098 7.20432 12.7847 7.0793C12.6597 6.95427 12.4901 6.88403 12.3133 6.88403H8.31333C8.13652 6.88403 7.96695 6.95427 7.84192 7.0793C7.7169 7.20432 7.64666 7.37389 7.64666 7.5507V12.2174ZM8.31333 5.5507H12.3133C12.4901 5.5507 12.6597 5.48046 12.7847 5.35544C12.9098 5.23041 12.98 5.06084 12.98 4.88403V1.5507C12.98 1.37389 12.9098 1.20432 12.7847 1.0793C12.6597 0.954271 12.4901 0.884033 12.3133 0.884033H8.31333C8.13652 0.884033 7.96695 0.954271 7.84192 1.0793C7.7169 1.20432 7.64666 1.37389 7.64666 1.5507V4.88403C7.64666 5.06084 7.7169 5.23041 7.84192 5.35544C7.96695 5.48046 8.13652 5.5507 8.31333 5.5507Z" />
</svg>
